<?xml version="1.0" encoding="UTF-8" standalone="no" ?>
<!DOCTYPE svg PUBLIC "-//W3C//DTD SVG 1.1//EN" "http://www.w3.org/Graphics/SVG/1.1/DTD/svg11.dtd">
<svg xmlns="http://www.w3.org/2000/svg" xmlns:xlink="http://www.w3.org/1999/xlink" version="1.1" width="200" height="50" viewBox="0 0 200 50" xml:space="preserve">
<desc>Created with Fabric.js 4.6.0</desc>
<defs>
</defs>
<g transform="matrix(0.01 0 0 -0.01 90.71 25.36)" id="AJDeslKq1Y2PQ3DNjxxe8"  >
<path style="stroke: none; stroke-width: 1; stroke-dasharray: none; stroke-linecap: butt; stroke-dashoffset: 0; stroke-linejoin: miter; stroke-miterlimit: 4; fill: rgb(91,92,113); fill-rule: nonzero; opacity: 1;" vector-effect="non-scaling-stroke"  transform=" translate(-9694.5, -9210)" d="M 8887 10488 C 8883 9959 8880 8951 8880 8248 L 8880 6970 L 9105 6970 L 9330 6970 L 9330 8388 C 9330 9782 9334 10086 9351 10105 C 9356 10110 9360 10124 9360 10137 C 9360 10167 9453 10261 9510 10287 C 9589 10323 9624 10330 9726 10330 C 9833 10330 9885 10317 9950 10274 C 9990 10247 10040 10190 10040 10171 C 10040 10165 10043 10160 10048 10160 C 10052 10160 10064 10136 10075 10108 C 10094 10056 10095 10026 10091 8513 L 10088 6970 L 10298 6970 L 10509 6970 L 10508 7033 C 10508 7095 10508 7275 10508 7360 C 10509 7385 10508 7446 10508 7495 C 10506 7656 10506 7705 10508 7735 C 10509 7752 10508 8292 10505 8935 C 10501 9740 10496 10114 10488 10135 C 10483 10152 10474 10183 10470 10205 C 10459 10257 10437 10317 10422 10332 C 10415 10339 10410 10352 10410 10362 C 10410 10372 10406 10380 10401 10380 C 10396 10380 10388 10390 10384 10402 C 10377 10426 10235 10570 10220 10570 C 10214 10570 10193 10581 10172 10594 C 10152 10606 10124 10620 10110 10624 C 10096 10628 10076 10635 10065 10640 C 10054 10644 9995 10656 9934 10665 C 9851 10678 9814 10679 9784 10671 C 9763 10666 9716 10658 9681 10654 C 9645 10650 9605 10641 9591 10634 C 9577 10626 9561 10620 9555 10620 C 9530 10620 9433 10560 9374 10508 C 9304 10446 9295 10441 9286 10466 C 9283 10475 9280 10700 9280 10966 L 9280 11450 L 9087 11450 L 8893 11450 L 8887 10488 z" stroke-linecap="round" />
</g>
<g transform="matrix(0.01 0 0 -0.01 15.15 20.29)" id="V1X8aJTJIZhENb6hi62ep"  >
<path style="stroke: none; stroke-width: 1; stroke-dasharray: none; stroke-linecap: butt; stroke-dashoffset: 0; stroke-linejoin: miter; stroke-miterlimit: 4; fill: rgb(91,92,113); fill-rule: nonzero; opacity: 1;" vector-effect="non-scaling-stroke"  transform=" translate(-1680.5, -9747.56)" d="M 1095 10661 C 1022 10645 995 10637 935 10611 C 924 10606 904 10598 890 10592 C 861 10581 796 10528 760 10486 C 697 10414 690 10408 675 10414 C 663 10418 660 10440 660 10525 L 660 10630 L 483 10628 L 305 10625 L 302 9723 L 300 8820 L 494 8820 L 689 8820 L 693 9393 C 697 9977 698 9996 736 10087 C 744 10104 750 10123 750 10129 C 750 10135 755 10140 760 10140 C 766 10140 770 10146 770 10154 C 770 10192 922 10310 970 10310 C 980 10310 992 10315 995 10320 C 1003 10332 1213 10334 1238 10321 C 1247 10317 1272 10305 1292 10295 C 1367 10259 1429 10172 1460 10060 C 1469 10027 1474 9853 1477 9418 L 1482 8820 L 1681 8820 L 1880 8820 L 1880 9402 C 1880 9985 1881 10014 1916 10083 C 1924 10099 1930 10116 1930 10122 C 1930 10135 1987 10207 2025 10243 C 2061 10276 2124 10310 2150 10310 C 2160 10310 2172 10315 2175 10320 C 2183 10332 2393 10334 2418 10321 C 2427 10317 2451 10305 2470 10296 C 2524 10271 2588 10206 2606 10160 C 2609 10152 2616 10136 2621 10125 C 2648 10069 2653 9959 2657 9403 L 2661 8820 L 2861 8820 L 3061 8820 L 3056 9423 C 3051 10106 3046 10178 2994 10283 C 2986 10299 2980 10320 2980 10331 C 2980 10341 2976 10350 2971 10350 C 2966 10350 2958 10360 2954 10372 C 2951 10384 2942 10399 2936 10406 C 2930 10412 2918 10428 2910 10440 C 2893 10466 2888 10471 2827 10528 C 2802 10551 2779 10570 2775 10570 C 2772 10570 2752 10581 2731 10595 C 2709 10608 2679 10622 2663 10626 C 2648 10630 2631 10636 2625 10640 C 2613 10650 2447 10674 2400 10674 C 2348 10673 2187 10650 2170 10641 C 2161 10636 2139 10629 2120 10625 C 2088 10618 2067 10610 2030 10588 C 2022 10584 2008 10577 2000 10573 C 1992 10570 1969 10554 1949 10538 C 1929 10523 1910 10510 1907 10510 C 1904 10510 1878 10485 1848 10455 C 1818 10423 1786 10400 1774 10400 C 1761 10400 1740 10418 1715 10453 C 1679 10502 1563 10600 1540 10600 C 1534 10600 1522 10604 1512 10610 C 1467 10635 1418 10649 1340 10660 C 1209 10680 1181 10680 1095 10661 z" stroke-linecap="round" />
</g>
<g transform="matrix(0.01 0 0 -0.01 40.4 20.45)" id="VWBzr_GOKDkbtqoGEzbVB"  >
<path style="stroke: none; stroke-width: 1; stroke-dasharray: none; stroke-linecap: butt; stroke-dashoffset: 0; stroke-linejoin: miter; stroke-miterlimit: 4; fill: rgb(91,92,113); fill-rule: nonzero; opacity: 1;" vector-effect="non-scaling-stroke"  transform=" translate(-4358.94, -9730.31)" d="M 4308 10671 C 4294 10666 4249 10659 4208 10655 C 4168 10651 4131 10644 4125 10640 C 4120 10636 4099 10629 4080 10625 C 3992 10607 3848 10523 3759 10438 C 3693 10375 3600 10260 3600 10242 C 3600 10228 3567 10166 3558 10162 C 3553 10160 3550 10152 3550 10143 C 3550 10135 3544 10116 3536 10102 C 3492 10017 3457 9768 3471 9645 C 3484 9526 3498 9453 3509 9431 C 3515 9420 3520 9401 3520 9388 C 3520 9337 3661 9097 3731 9030 C 3771 8991 3851 8929 3886 8910 C 3908 8898 3945 8878 3969 8864 C 3993 8851 4021 8840 4032 8840 C 4042 8840 4058 8836 4068 8831 C 4136 8794 4331 8774 4480 8789 C 4581 8800 4635 8812 4715 8844 C 4748 8857 4782 8871 4790 8874 C 4798 8877 4814 8886 4825 8892 C 4954 8975 5049 9066 5113 9168 C 5153 9232 5167 9258 5203 9343 L 5220 9380 L 5018 9378 L 4815 9375 L 4783 9325 C 4746 9269 4675 9202 4627 9178 C 4552 9142 4517 9130 4486 9130 C 4468 9130 4438 9125 4420 9119 C 4359 9097 4185 9137 4095 9193 C 4042 9226 3964 9302 3949 9335 C 3944 9346 3929 9373 3915 9395 C 3902 9417 3891 9445 3890 9457 C 3890 9469 3886 9481 3881 9484 C 3867 9493 3859 9592 3871 9607 C 3880 9618 4012 9620 4566 9620 L 5250 9620 L 5250 9753 C 5250 9825 5245 9903 5239 9925 C 5233 9947 5225 9983 5220 10005 C 5204 10086 5122 10265 5083 10308 C 5070 10322 5060 10337 5060 10342 C 5060 10354 4945 10469 4899 10503 C 4868 10527 4831 10548 4752 10589 C 4698 10617 4689 10620 4674 10620 C 4665 10620 4644 10626 4627 10634 C 4599 10646 4492 10664 4370 10676 C 4351 10678 4323 10675 4308 10671 z M 4463 10344 C 4503 10336 4544 10325 4555 10320 C 4566 10315 4585 10308 4598 10305 C 4610 10301 4620 10294 4620 10289 C 4620 10284 4627 10280 4635 10280 C 4643 10280 4678 10252 4713 10218 C 4769 10163 4793 10125 4831 10035 C 4844 10004 4859 9927 4854 9918 C 4851 9914 4629 9910 4359 9910 L 3870 9910 L 3870 9944 C 3870 9963 3875 9982 3880 9985 C 3886 9988 3890 10000 3890 10011 C 3890 10046 3954 10152 4010 10210 C 4073 10275 4151 10317 4255 10342 C 4345 10363 4376 10363 4463 10344 z" stroke-linecap="round" />
</g>
<g transform="matrix(0.01 0 0 -0.01 71.25 20.44)" id="Lean40hgckaThyK7HxgAj"  >
<path style="stroke: none; stroke-width: 1; stroke-dasharray: none; stroke-linecap: butt; stroke-dashoffset: 0; stroke-linejoin: miter; stroke-miterlimit: 4; fill: rgb(91,92,113); fill-rule: nonzero; opacity: 1;" vector-effect="non-scaling-stroke"  transform=" translate(-7630.5, -9731.25)" d="M 7600 10670 C 7581 10665 7534 10658 7495 10655 C 7457 10651 7421 10644 7415 10640 C 7410 10636 7389 10629 7370 10625 C 7351 10621 7329 10614 7320 10610 C 7312 10606 7285 10593 7260 10581 C 7142 10524 7040 10443 6969 10350 C 6951 10325 6927 10296 6918 10286 C 6908 10275 6890 10246 6879 10221 C 6867 10196 6847 10153 6834 10125 C 6822 10098 6808 10059 6804 10040 C 6801 10021 6794 9999 6789 9990 C 6778 9968 6750 9780 6750 9725 C 6750 9670 6778 9482 6789 9460 C 6794 9451 6801 9429 6804 9410 C 6810 9379 6846 9292 6870 9250 C 6875 9242 6889 9217 6901 9195 C 6912 9173 6925 9153 6929 9150 C 6933 9147 6952 9124 6971 9099 C 6990 9073 7028 9033 7055 9009 C 7083 8986 7113 8959 7122 8951 C 7168 8911 7295 8848 7375 8825 C 7408 8815 7444 8803 7454 8797 C 7482 8783 7848 8784 7863 8799 C 7869 8805 7882 8810 7891 8810 C 7900 8810 7934 8819 7968 8829 C 8023 8847 8047 8857 8090 8882 C 8098 8886 8112 8893 8120 8897 C 8181 8923 8330 9058 8364 9119 C 8369 9128 8376 9137 8380 9140 C 8403 9157 8465 9285 8477 9340 C 8480 9354 8486 9370 8490 9375 C 8494 9381 8500 9402 8504 9423 L 8511 9460 L 8307 9460 L 8103 9460 L 8091 9433 C 8084 9417 8071 9389 8062 9370 C 8032 9305 7946 9217 7884 9186 C 7851 9170 7816 9152 7805 9146 C 7794 9140 7732 9134 7668 9132 C 7575 9129 7545 9131 7519 9144 C 7501 9153 7479 9160 7469 9160 C 7459 9160 7449 9164 7446 9169 C 7443 9174 7422 9188 7399 9199 C 7354 9223 7260 9316 7260 9337 C 7260 9344 7257 9350 7252 9350 C 7237 9350 7180 9482 7180 9518 C 7180 9534 7175 9551 7168 9558 C 7151 9575 7144 9804 7160 9855 C 7166 9877 7176 9913 7180 9935 C 7207 10065 7314 10214 7417 10264 C 7438 10274 7463 10286 7472 10291 C 7507 10309 7646 10332 7685 10326 C 7748 10317 7817 10302 7837 10292 C 7847 10286 7872 10274 7893 10264 C 7959 10232 8080 10084 8080 10036 C 8080 10029 8088 10016 8098 10007 C 8114 9992 8144 9990 8308 9990 C 8454 9990 8500 9993 8501 10003 C 8504 10032 8497 10062 8479 10112 C 8467 10141 8456 10174 8452 10185 C 8449 10196 8427 10237 8404 10275 C 8335 10388 8190 10527 8100 10566 C 8092 10569 8063 10583 8035 10595 C 7945 10637 7876 10652 7675 10674 C 7653 10677 7619 10675 7600 10670 z" stroke-linecap="round" />
</g>
<g transform="matrix(0.01 0 0 -0.01 57.2 20.41)" id="fBcFwgZBMRrtA_zZHrbiy"  >
<path style="stroke: none; stroke-width: 1; stroke-dasharray: none; stroke-linecap: butt; stroke-dashoffset: 0; stroke-linejoin: miter; stroke-miterlimit: 4; fill: rgb(91,92,113); fill-rule: nonzero; opacity: 1;" vector-effect="non-scaling-stroke"  transform=" translate(-6140, -9735)" d="M 6450 10641 C 6442 10636 6414 10629 6388 10626 C 6362 10622 6338 10615 6335 10609 C 6331 10604 6321 10600 6312 10600 C 6268 10600 6171 10534 6094 10452 C 6064 10420 6038 10400 6031 10404 C 6024 10409 6020 10450 6020 10521 L 6020 10630 L 5851 10630 C 5758 10630 5675 10627 5666 10624 C 5652 10618 5650 10529 5650 9719 L 5650 8820 L 5850 8820 L 6050 8820 L 6050 9312 C 6050 9711 6053 9820 6065 9889 C 6082 9979 6084 9986 6120 10063 C 6147 10122 6228 10203 6284 10228 C 6376 10270 6424 10280 6528 10280 L 6630 10280 L 6630 10465 L 6630 10650 L 6548 10650 C 6502 10650 6458 10646 6450 10641 z" stroke-linecap="round" />
</g>
<g transform="matrix(0.01 0 0 -0.01 146.13 35.72)" id="41qAlOozek40_orXR4RPY"  >
<path style="stroke: none; stroke-width: 1; stroke-dasharray: none; stroke-linecap: butt; stroke-dashoffset: 0; stroke-linejoin: miter; stroke-miterlimit: 4; fill: rgb(91,92,113); fill-rule: nonzero; opacity: 1;" vector-effect="non-scaling-stroke"  transform=" translate(-15572.59, -8110.75)" d="M 15347 9253 C 15343 9250 15340 9147 15340 9025 C 15340 8853 15337 8800 15327 8792 C 15319 8785 15260 8779 15189 8778 L 15065 8775 L 15065 8625 L 15065 8475 L 15192 8470 C 15262 8467 15324 8460 15329 8455 C 15336 8448 15341 8249 15343 7890 C 15346 7300 15346 7301 15397 7195 C 15433 7120 15533 7020 15572 7020 C 15580 7020 15591 7015 15597 7009 C 15603 7003 15626 6994 15647 6989 C 15668 6985 15705 6976 15730 6970 C 15779 6957 16036 6960 16058 6973 C 16067 6979 16070 7025 16070 7146 L 16070 7310 L 15970 7310 C 15850 7310 15815 7324 15771 7392 L 15740 7439 L 15740 7942 C 15740 8321 15743 8449 15752 8458 C 15760 8466 15811 8470 15917 8470 C 16098 8470 16082 8453 16078 8645 L 16075 8775 L 15910 8780 L 15745 8785 L 15742 9016 C 15740 9246 15739 9248 15717 9254 C 15687 9262 15355 9262 15347 9253 z" stroke-linecap="round" />
</g>
<g transform="matrix(0.01 0 0 -0.01 130.79 37.71)" id="EqLMBCSl2sF8CbT91J7Sw"  >
<path style="stroke: none; stroke-width: 1; stroke-dasharray: none; stroke-linecap: butt; stroke-dashoffset: 0; stroke-linejoin: miter; stroke-miterlimit: 4; fill: rgb(91,92,113); fill-rule: nonzero; opacity: 1;" vector-effect="non-scaling-stroke"  transform=" translate(-13945, -7899.54)" d="M 13985 8815 C 13952 8807 13913 8801 13898 8801 C 13884 8800 13859 8794 13843 8786 C 13828 8778 13802 8766 13785 8760 C 13707 8729 13679 8709 13602 8632 C 13551 8580 13518 8554 13515 8562 C 13512 8569 13509 8620 13508 8675 L 13505 8775 L 13345 8778 C 13257 8779 13175 8778 13163 8775 L 13140 8770 L 13140 7870 L 13140 6970 L 13340 6970 L 13540 6970 L 13543 7548 C 13546 8105 13552 8206 13578 8232 C 13585 8239 13590 8251 13590 8260 C 13590 8268 13601 8287 13615 8302 C 13629 8317 13640 8333 13640 8338 C 13640 8364 13790 8460 13830 8460 C 13840 8460 13852 8465 13855 8470 C 13859 8476 13907 8480 13968 8480 C 14093 8480 14159 8461 14224 8410 C 14251 8388 14320 8293 14320 8277 C 14320 8269 14328 8248 14338 8229 C 14353 8198 14355 8142 14358 7583 L 14362 6970 L 14556 6970 L 14750 6970 L 14750 7620 C 14750 8176 14748 8276 14735 8307 C 14727 8326 14720 8353 14720 8366 C 14720 8380 14716 8398 14710 8408 C 14705 8417 14691 8448 14679 8475 C 14655 8532 14589 8624 14547 8659 C 14531 8673 14512 8689 14505 8696 C 14488 8713 14359 8780 14343 8780 C 14336 8780 14322 8784 14312 8789 C 14295 8798 14090 8831 14060 8829 C 14052 8829 14018 8822 13985 8815 z" stroke-linecap="round" />
</g>
<g transform="matrix(0.01 0 0 -0.01 161.26 37.89)" id="1g6iBXD7i-YQV4fM1CesH"  >
<path style="stroke: none; stroke-width: 1; stroke-dasharray: none; stroke-linecap: butt; stroke-dashoffset: 0; stroke-linejoin: miter; stroke-miterlimit: 4; fill: rgb(91,92,113); fill-rule: nonzero; opacity: 1;" vector-effect="non-scaling-stroke"  transform=" translate(-17176.5, -7880.43)" d="M 17100 8815 C 17064 8808 17020 8802 17001 8801 C 16968 8800 16895 8779 16833 8753 C 16816 8746 16797 8740 16791 8740 C 16785 8740 16780 8737 16780 8733 C 16780 8728 16761 8716 16737 8705 C 16714 8694 16693 8683 16690 8680 C 16687 8677 16673 8667 16659 8658 C 16590 8614 16444 8453 16417 8390 C 16413 8382 16406 8368 16401 8360 C 16379 8324 16341 8232 16334 8200 C 16331 8181 16324 8159 16320 8150 C 16308 8128 16280 7933 16280 7875 C 16280 7818 16308 7625 16320 7595 C 16325 7584 16332 7561 16335 7543 C 16339 7525 16350 7494 16359 7473 C 16369 7452 16389 7410 16403 7380 C 16418 7349 16437 7316 16447 7305 C 16457 7294 16476 7269 16490 7250 C 16569 7135 16738 7020 16895 6975 C 16928 6965 16965 6953 16977 6947 C 17010 6932 17346 6933 17395 6949 C 17513 6986 17612 7022 17620 7031 C 17623 7034 17653 7053 17686 7073 C 17789 7135 17941 7301 17976 7390 C 17984 7410 18011 7471 18021 7492 C 18026 7502 18030 7514 18030 7520 C 18030 7526 17959 7530 17832 7530 L 17634 7530 L 17615 7499 C 17604 7482 17590 7459 17584 7449 C 17565 7416 17487 7351 17440 7329 C 17415 7317 17386 7303 17375 7297 C 17327 7271 17178 7261 17079 7277 C 17019 7287 16999 7294 16950 7322 C 16942 7326 16924 7335 16911 7340 C 16870 7358 16766 7473 16739 7530 C 16684 7648 16664 7744 16691 7761 C 16699 7766 17013 7770 17389 7770 L 18073 7770 L 18066 7923 C 18062 8006 18055 8089 18050 8105 C 18045 8122 18033 8162 18024 8195 C 18015 8228 17995 8281 17979 8313 C 17963 8344 17950 8377 17950 8384 C 17950 8392 17947 8400 17943 8402 C 17938 8404 17918 8430 17898 8460 C 17853 8527 17822 8561 17750 8621 C 17669 8690 17542 8760 17470 8775 C 17451 8779 17429 8786 17420 8791 C 17412 8795 17365 8803 17315 8810 C 17266 8816 17212 8822 17195 8824 C 17179 8826 17136 8822 17100 8815 z M 17308 8488 C 17490 8445 17623 8310 17661 8132 C 17666 8108 17672 8084 17675 8079 C 17691 8054 17611 8049 17164 8052 C 16826 8054 16698 8058 16689 8067 C 16675 8081 16696 8150 16742 8245 C 16772 8307 16888 8430 16916 8430 C 16924 8430 16930 8435 16930 8440 C 16930 8446 16935 8450 16941 8450 C 16947 8450 16966 8457 16983 8465 C 17073 8506 17197 8515 17308 8488 z" stroke-linecap="round" />
</g>
<g transform="matrix(0.01 0 0 -0.01 191.22 37.9)" id="DyM4f_fzQf25JCmvMaz1T"  >
<path style="stroke: none; stroke-width: 1; stroke-dasharray: none; stroke-linecap: butt; stroke-dashoffset: 0; stroke-linejoin: miter; stroke-miterlimit: 4; fill: rgb(91,92,113); fill-rule: nonzero; opacity: 1;" vector-effect="non-scaling-stroke"  transform=" translate(-20354.04, -7879.66)" d="M 20265 8810 C 20132 8788 20060 8770 20060 8758 C 20060 8754 20053 8750 20045 8750 C 20012 8750 19891 8672 19835 8614 C 19795 8573 19776 8548 19763 8520 C 19759 8512 19750 8499 19743 8492 C 19736 8485 19730 8470 19730 8460 C 19730 8450 19726 8439 19721 8436 C 19716 8433 19709 8413 19706 8393 C 19702 8372 19694 8334 19688 8308 C 19674 8249 19699 8103 19737 8021 C 19765 7962 19834 7888 19906 7842 C 19916 7836 19932 7827 19940 7824 C 19948 7821 19969 7812 19987 7804 C 20004 7796 20027 7790 20037 7790 C 20048 7790 20060 7787 20064 7783 C 20076 7770 20265 7726 20370 7711 C 20400 7707 20438 7698 20453 7692 C 20469 7685 20492 7680 20506 7680 C 20519 7680 20538 7676 20548 7670 C 20557 7665 20583 7653 20605 7644 C 20700 7602 20730 7561 20730 7468 C 20730 7404 20728 7398 20694 7360 C 20674 7338 20637 7311 20612 7299 C 20586 7287 20555 7273 20543 7267 C 20509 7252 20283 7253 20230 7268 C 20097 7308 20013 7389 19986 7503 L 19980 7530 L 19788 7530 L 19597 7530 L 19603 7493 C 19617 7412 19631 7355 19640 7346 C 19646 7340 19650 7326 19650 7314 C 19650 7301 19654 7289 19659 7286 C 19664 7283 19677 7262 19688 7241 C 19708 7204 19727 7178 19775 7126 C 19786 7114 19818 7089 19845 7070 C 19873 7051 19897 7032 19898 7028 C 19900 7023 19907 7020 19915 7020 C 19922 7020 19953 7009 19984 6995 C 20015 6981 20059 6967 20083 6964 C 20106 6960 20130 6954 20135 6950 C 20152 6937 20411 6930 20500 6939 C 20607 6951 20688 6966 20720 6981 C 20734 6987 20761 6999 20780 7007 C 20799 7015 20822 7026 20830 7031 C 20838 7036 20852 7043 20860 7047 C 20885 7059 20901 7072 20969 7140 C 21058 7228 21087 7287 21105 7413 C 21122 7532 21103 7648 21052 7749 C 21016 7819 20885 7928 20816 7946 C 20802 7949 20787 7956 20784 7961 C 20781 7966 20767 7970 20753 7970 C 20739 7970 20714 7976 20697 7984 C 20657 8000 20581 8020 20515 8031 C 20408 8049 20251 8085 20222 8099 C 20213 8103 20188 8115 20166 8126 C 20102 8157 20052 8247 20071 8296 C 20076 8310 20080 8330 20080 8342 C 20080 8370 20141 8438 20187 8460 C 20208 8470 20264 8486 20313 8495 C 20395 8511 20404 8511 20473 8495 C 20512 8485 20559 8467 20577 8454 C 20594 8441 20613 8430 20617 8430 C 20633 8430 20697 8336 20715 8288 L 20733 8240 L 20916 8240 L 21100 8240 L 21100 8284 C 21100 8308 21093 8341 21085 8356 C 21077 8372 21070 8393 21070 8402 C 21070 8445 20970 8594 20901 8653 C 20838 8708 20740 8764 20689 8775 C 20670 8779 20651 8786 20645 8790 C 20636 8797 20539 8811 20415 8824 C 20393 8826 20326 8820 20265 8810 z" stroke-linecap="round" />
</g>
<g transform="matrix(0.01 0 0 -0.01 178.03 37.85)" id="fQ1d54oAEfAPlmTUEWU4Z"  >
<path style="stroke: none; stroke-width: 1; stroke-dasharray: none; stroke-linecap: butt; stroke-dashoffset: 0; stroke-linejoin: miter; stroke-miterlimit: 4; fill: rgb(91,92,113); fill-rule: nonzero; opacity: 1;" vector-effect="non-scaling-stroke"  transform=" translate(-18955, -7885)" d="M 19270 8791 C 19262 8786 19233 8779 19206 8775 C 19179 8772 19150 8765 19141 8760 C 19132 8756 19105 8743 19080 8731 C 19009 8697 18999 8689 18930 8618 C 18894 8580 18859 8550 18852 8550 C 18844 8550 18840 8585 18838 8663 L 18835 8775 L 18675 8778 C 18587 8779 18505 8778 18493 8775 L 18470 8770 L 18470 7870 L 18470 6970 L 18670 6970 L 18869 6970 L 18873 7498 C 18877 7998 18882 8107 18908 8156 C 18913 8166 18926 8192 18936 8214 C 18962 8267 19049 8353 19101 8377 C 19195 8419 19244 8430 19343 8430 L 19440 8430 L 19440 8615 L 19440 8800 L 19363 8800 C 19320 8800 19278 8796 19270 8791 z" stroke-linecap="round" />
</g>
<g transform="matrix(0.01 0 0 -0.01 110.56 38.11)" id="mLdpo8apw0_PMxhpBtnvl"  >
<path style="stroke: none; stroke-width: 1; stroke-dasharray: none; stroke-linecap: butt; stroke-dashoffset: 0; stroke-linejoin: miter; stroke-miterlimit: 4; fill: rgb(91,92,113); fill-rule: nonzero; opacity: 1;" vector-effect="non-scaling-stroke"  transform=" translate(-11800.24, -7857.75)" d="M 11007 8773 C 10996 8763 11000 7552 11011 7490 C 11016 7460 11023 7419 11026 7400 C 11029 7381 11038 7352 11045 7335 C 11053 7319 11068 7284 11079 7259 C 11099 7215 11159 7129 11190 7099 C 11252 7040 11366 6975 11428 6964 C 11448 6960 11471 6953 11478 6947 C 11486 6940 11557 6936 11658 6936 C 11799 6935 11833 6938 11875 6954 C 11903 6965 11929 6977 11935 6982 C 11940 6986 11952 6990 11963 6990 C 12001 6990 12130 7089 12176 7154 C 12190 7174 12202 7181 12214 7177 C 12227 7172 12230 7154 12230 7070 L 12230 6970 L 12415 6970 L 12600 6970 L 12598 7873 L 12595 8775 L 12400 8775 L 12205 8775 L 12199 8185 C 12193 7618 12192 7593 12172 7542 C 12098 7355 11965 7265 11765 7266 C 11596 7268 11481 7344 11424 7492 C 11409 7530 11406 7604 11403 8150 C 11400 8606 11395 8767 11387 8772 C 11372 8781 11016 8783 11007 8773 z" stroke-linecap="round" />
</g>
</svg>